<svg width="1200" height="514" viewBox="0 0 1200 514" fill="none" xmlns="http://www.w3.org/2000/svg">
  <rect width="1200" height="514" rx="40" fill="#10251E"/>
  <path d="M0 0H1200V514H0V0Z" fill="url(#paint0_radial)"/>
  <rect x="76" y="78" width="154" height="44" rx="22" fill="#A7F3D0" fill-opacity="0.95"/>
  <text x="105" y="107" fill="#10251E" font-family="Arial, sans-serif" font-size="22" font-weight="800">CAMPUS</text>
  <text x="76" y="196" fill="#FFFFFF" font-family="Arial, sans-serif" font-size="68" font-weight="800">캠퍼스별 제휴를</text>
  <text x="76" y="270" fill="#FFFFFF" font-family="Arial, sans-serif" font-size="68" font-weight="800">따로 모아보기</text>
  <text x="78" y="334" fill="#CCEBDD" font-family="Arial, sans-serif" font-size="28" font-weight="600">서울 캠퍼스 주변 혜택부터 빠르게 확인하세요.</text>
  <g transform="translate(778 128)">
    <rect x="24" y="24" width="292" height="252" rx="34" fill="#FFFFFF" fill-opacity="0.12" stroke="#FFFFFF" stroke-opacity="0.22"/>
    <path d="M170 78C123 78 86 115 86 162C86 225 170 276 170 276C170 276 254 225 254 162C254 115 217 78 170 78Z" fill="#34D399"/>
    <circle cx="170" cy="162" r="38" fill="#0F172A" fill-opacity="0.45"/>
    <circle cx="170" cy="162" r="20" fill="#FFFFFF"/>
  </g>
  <defs>
    <radialGradient id="paint0_radial" cx="0" cy="0" r="1" gradientUnits="userSpaceOnUse" gradientTransform="translate(1008 106) rotate(151.6) scale(903 629)">
      <stop stop-color="#34D399" stop-opacity="0.35"/>
      <stop offset="0.48" stop-color="#10B981" stop-opacity="0.12"/>
      <stop offset="1" stop-color="#020617" stop-opacity="0"/>
    </radialGradient>
  </defs>
</svg>
