<svg width="1200" height="514" viewBox="0 0 1200 514" fill="none" xmlns="http://www.w3.org/2000/svg">
  <rect width="1200" height="514" rx="40" fill="#0F1F36"/>
  <path d="M0 0H1200V514H0V0Z" fill="url(#paint0_radial)"/>
  <path d="M760 98C842 76 938 91 1018 138C1099 185 1164 265 1200 364V514H690C649 472 627 420 626 360C624 240 676 120 760 98Z" fill="#244B7D" fill-opacity="0.45"/>
  <rect x="74" y="78" width="178" height="44" rx="22" fill="#FFFFFF" fill-opacity="0.12"/>
  <text x="101" y="107" fill="#D9E8FF" font-family="Arial, sans-serif" font-size="22" font-weight="700">SSARTNERSHIP</text>
  <text x="76" y="196" fill="#FFFFFF" font-family="Arial, sans-serif" font-size="68" font-weight="800">SSAFY 제휴 혜택</text>
  <text x="76" y="270" fill="#FFFFFF" font-family="Arial, sans-serif" font-size="68" font-weight="800">한곳에서 확인</text>
  <text x="78" y="334" fill="#B8CBE4" font-family="Arial, sans-serif" font-size="28" font-weight="600">카페, 식사, 문화, 공간, 채용 혜택을 빠르게 탐색하세요.</text>
  <g transform="translate(782 168)">
    <rect width="300" height="206" rx="28" fill="#FFFFFF" fill-opacity="0.12" stroke="#FFFFFF" stroke-opacity="0.22"/>
    <rect x="32" y="34" width="132" height="28" rx="14" fill="#6FD3FF"/>
    <rect x="32" y="82" width="236" height="20" rx="10" fill="#FFFFFF" fill-opacity="0.75"/>
    <rect x="32" y="120" width="202" height="20" rx="10" fill="#FFFFFF" fill-opacity="0.45"/>
    <rect x="32" y="158" width="156" height="20" rx="10" fill="#FFFFFF" fill-opacity="0.28"/>
  </g>
  <defs>
    <radialGradient id="paint0_radial" cx="0" cy="0" r="1" gradientUnits="userSpaceOnUse" gradientTransform="translate(192 66) rotate(28.9) scale(946 725)">
      <stop stop-color="#2563EB" stop-opacity="0.45"/>
      <stop offset="0.48" stop-color="#1D4ED8" stop-opacity="0.1"/>
      <stop offset="1" stop-color="#020617" stop-opacity="0"/>
    </radialGradient>
  </defs>
</svg>
