<svg width="512" height="512" viewBox="0 0 512 512" fill="none" xmlns="http://www.w3.org/2000/svg" role="img" aria-label="SSARTNERSHIP">
  <g clip-path="url(#clip0_66_415)">
    <path
      d="M400 0H112C50.1441 0 0 50.1441 0 112V400C0 461.856 50.1441 512 112 512H400C461.856 512 512 461.856 512 400V112C512 50.1441 461.856 0 400 0Z"
      fill="white"
    />
    <path
      d="M134 177C134 139 166 109 214 109H282C306 109 326 129 326 153C326 178 306 197 282 197H198C186 197 176 207 176 219C176 231 186 241 198 241H282C320 241 350 271 350 309C350 347 320 377 282 377H198C160 377 130 347 130 309C130 295 141 283 156 283C171 283 182 295 182 309C182 323 191 333 198 333H282C294 333 304 323 304 311C304 299 294 289 282 289H198C160 289 130 259 130 221L134 177Z"
      fill="#1D386F"
    />
    <path
      d="M166 202C166 164 198 134 246 134H314C338 134 358 154 358 178C358 203 338 222 314 222H230C218 222 208 232 208 244C208 256 218 266 230 266H314C352 266 382 296 382 334C382 372 352 402 314 402H230C192 402 162 372 162 334C162 320 173 308 188 308C203 308 214 320 214 334C214 348 223 358 230 358H314C326 358 336 348 336 336C336 324 326 314 314 314H230C192 314 162 284 162 246L166 202Z"
      fill="#16C2F4"
    />
  </g>
  <defs>
    <clipPath id="clip0_66_415">
      <rect width="512" height="512" fill="white"/>
    </clipPath>
  </defs>
</svg>
